PathFileType	4	(X/Y/Z)	C:/Users/opensim2020/Desktop/walking_exp_matlab/subject03_walking11_straight_04.trc	
DataRate	CameraRate	NumFrames	NumMarkers	Units	OrigDataRate	OrigDataStartFrame	OrigNumFrames	
100.00	100.00	7	46	mm	100.00	3923	350	
Frame#	Time	LFHD			RFHD			LBHD			RBHD			C7			T10			CLAV			STRN			RBAK			LSHO			LUPA			LELB			LFRM			LWRA			LWRB			LFIN			RSHO			RUPA			RELB			RFRM			RWRA			RWRB			RFIN			LASI			RASI			LPSI			RPSI			LTHI			LKNE			LTIB			LANK			LHEE			LTOE			RTHI			RKNE			RTIB			RANK			RHEE			RTOE			*39			*40			*41			*42			*43			*44			*45			
		X1	Y1	Z1	X2	Y2	Z2	X3	Y3	Z3	X4	Y4	Z4	X5	Y5	Z5	X6	Y6	Z6	X7	Y7	Z7	X8	Y8	Z8	X9	Y9	Z9	X10	Y10	Z10	X11	Y11	Z11	X12	Y12	Z12	X13	Y13	Z13	X14	Y14	Z14	X15	Y15	Z15	X16	Y16	Z16	X17	Y17	Z17	X18	Y18	Z18	X19	Y19	Z19	X20	Y20	Z20	X21	Y21	Z21	X22	Y22	Z22	X23	Y23	Z23	X24	Y24	Z24	X25	Y25	Z25	X26	Y26	Z26	X27	Y27	Z27	X28	Y28	Z28	X29	Y29	Z29	X30	Y30	Z30	X31	Y31	Z31	X32	Y32	Z32	X33	Y33	Z33	X34	Y34	Z34	X35	Y35	Z35	X36	Y36	Z36	X37	Y37	Z37	X38	Y38	Z38	X39	Y39	Z39	X40	Y40	Z40	X41	Y41	Z41	X42	Y42	Z42	X43	Y43	Z43	X44	Y44	Z44	X45	Y45	Z45	X46	Y46	Z46	

176	1.750	-945.17035	-136.72652	1610.57581	-1077.09558	-125.50032	1621.86902	-941.06531	-7.35979	1571.87524	-1071.45581	-1.09711	1582.18323	-998.93494	33.02499	1414.81592	-995.91797	64.80364	1099.95251	-1012.27222	-86.02725	1336.45667	-1008.61926	-130.03281	1172.77380	-1086.96277	97.71108	1237.12158	-854.64386	-60.32206	1374.63574	-778.57684	-99.33130	1187.63232	-766.54810	-141.47707	1072.63879	-780.08240	-212.35033	965.10376	-821.93958	-268.20776	864.48602	-767.15039	-256.86581	860.89880	-784.59833	-305.13553	794.04480	-1166.53040	-24.15497	1359.34436	-1238.40552	-19.65710	1136.21777	-1253.49609	-38.12903	1025.14258	-1257.49622	-59.12225	890.05139	-1226.06506	-95.54751	795.88293	-1267.21045	-61.34339	790.14301	-1261.99268	-90.48326	722.10138	-888.90698	-113.20801	938.39972	-1128.45520	-101.23907	940.72943	-932.54529	50.94830	958.77271	-1081.29529	58.13546	962.50848	-860.49231	-48.82876	634.46637	-903.52289	-36.21581	458.02295	-901.51508	30.82753	272.93976	-943.47510	77.39365	68.32130	-976.02002	122.61904	35.75978	-969.12091	-70.55280	30.70375	-1180.28271	-111.26219	649.27985	-1149.97595	-186.72191	484.34265	-1156.13062	-152.89110	296.81577	-1115.42017	-136.23552	79.79739	-1061.12476	-95.38288	45.12445	-1104.99182	-273.82230	44.74910	-988.68701	-53.16841	1675.13977																		 
177	1.760	-946.17340	-142.44382	1610.24988	-1078.10181	-130.93701	1621.24792	-941.72168	-13.23287	1571.07837	-1072.11548	-6.69600	1581.14429	-999.19855	26.94855	1414.17358	-996.10858	59.15718	1099.43579	-1012.71558	-92.01608	1335.73401	-1008.98621	-135.70854	1171.91724	-1087.02026	92.06731	1236.64233	-855.13879	-66.81533	1374.02856	-778.80396	-106.26087	1187.40735	-766.73431	-148.58928	1072.51123	-780.96991	-220.52110	965.80731	-823.57574	-277.24731	866.05334	-768.72015	-266.26727	862.06799	-786.78149	-315.13110	795.79553	-1166.94983	-29.92746	1358.51172	-1238.70081	-24.74125	1135.38696	-1254.00549	-42.99098	1024.30017	-1258.31274	-63.48911	889.08124	-1227.28662	-99.74726	794.80902	-1268.12646	-65.17872	789.19403	-1263.13403	-93.90349	720.88855	-889.07202	-118.94411	937.93170	-1128.64404	-107.02590	939.93365	-932.81519	45.26595	958.26581	-1081.56897	52.31754	961.72180	-860.78662	-52.95974	634.03864	-903.50049	-39.00781	457.66739	-901.46057	29.27617	272.92682	-943.26111	77.31591	68.64952	-975.94269	122.53174	36.06675	-968.75507	-71.13177	30.64823	-1181.00781	-117.16016	648.61432	-1149.79285	-193.27402	484.01810	-1155.91895	-164.96809	295.91873	-1115.22998	-156.11818	78.48740	-1060.65430	-116.34137	43.16624	-1104.92993	-294.71942	45.98509	-989.62695	-58.55650	1674.39648																		 
178	1.770	-947.15314	-148.16591	1609.87512	-1079.10242	-136.41429	1620.61523	-942.41797	-19.08823	1570.25244	-1072.88623	-12.33968	1580.11243	-999.54474	20.86311	1413.54504	-996.42450	53.42937	1098.85645	-1013.16687	-98.04887	1334.98523	-1009.36621	-141.49808	1171.09412	-1087.13550	86.26154	1236.06567	-855.71423	-73.26338	1373.36035	-779.04083	-112.95993	1186.97461	-766.97913	-155.63951	1072.29199	-781.80756	-228.46140	966.35986	-825.15002	-286.14874	867.43689	-770.33710	-275.25146	863.00134	-788.94080	-324.75116	797.32953	-1167.35376	-35.76434	1357.67920	-1239.03540	-29.96192	1134.52148	-1254.42883	-47.90635	1023.39764	-1259.02124	-67.91682	888.11841	-1228.37756	-103.98335	793.55988	-1268.97485	-69.14207	788.22650	-1264.12244	-97.42500	719.73578	-889.29602	-124.60748	937.28033	-1128.87537	-112.82175	939.15546	-933.15582	39.62502	957.70270	-1081.87024	46.58728	960.99384	-861.13599	-56.96592	633.54181	-903.56079	-41.83622	457.20868	-901.39905	27.67820	272.95309	-943.16174	77.12466	68.91625	-975.89905	122.53627	36.47830	-969.17743	-70.72767	30.50385	-1181.83167	-124.00247	648.27222	-1149.56689	-199.52850	483.52155	-1155.65881	-176.54031	295.11240	-1115.21533	-175.58078	77.05802	-1060.03223	-136.64354	41.60730	-1105.05005	-314.90582	47.62238	-990.70245	-63.93052	1673.67700																		 
179	1.780	-948.10840	-153.85864	1609.53186	-1080.05457	-141.91248	1619.96875	-943.19531	-24.94148	1569.48840	-1073.57043	-17.98556	1579.07385	-999.73273	14.72743	1412.84424	-996.75726	47.73967	1098.28333	-1013.68640	-104.08604	1334.17932	-1009.78070	-147.43315	1170.28259	-1087.26721	80.41202	1235.44946	-856.22003	-79.71748	1372.61938	-779.33704	-119.55544	1186.47998	-767.18726	-162.55899	1071.93616	-782.69659	-236.21896	966.69177	-826.84100	-294.88239	868.73541	-771.94714	-284.01071	863.71106	-791.12439	-334.01105	798.56757	-1167.81982	-41.57291	1356.92212	-1239.37036	-35.25910	1133.65295	-1254.83899	-52.90956	1022.50336	-1259.58618	-72.35121	887.16473	-1229.18091	-108.22862	792.47400	-1269.63623	-73.15905	787.19885	-1264.95203	-101.13963	718.48669	-889.51160	-130.35551	936.80585	-1129.11572	-118.64528	938.32642	-933.49597	33.88103	957.02020	-1082.24927	40.74298	960.20880	-860.81683	-60.96919	633.11298	-903.44147	-44.99187	456.76263	-901.42609	26.02724	272.91251	-943.09351	76.88861	69.25783	-975.88519	122.50871	36.90569	-969.27631	-70.57355	30.43045	-1182.22986	-129.68942	647.50452	-1149.40466	-205.37335	482.90979	-1155.36108	-187.56546	294.35675	-1114.74036	-193.76831	76.35146	-1059.27478	-156.31192	40.19016	-1105.43628	-334.19589	49.75958	-991.73187	-69.33213	1672.91284																		 
180	1.790	-949.09558	-159.59941	1609.14124	-1081.03467	-147.45091	1619.33496	-943.86560	-30.79331	1568.66797	-1074.28760	-23.63606	1577.99231	-1000.22650	8.64543	1412.14148	-997.18848	42.06969	1097.68542	-1014.17236	-110.17395	1333.37549	-1010.19617	-153.19788	1169.38538	-1087.44946	74.55432	1234.84314	-856.74652	-86.11107	1371.84387	-779.70251	-126.04454	1185.83765	-767.51172	-169.34506	1071.39343	-783.66534	-243.74402	966.88055	-828.39789	-302.89130	869.55835	-773.58936	-292.33447	864.19482	-793.28955	-342.84204	799.58917	-1168.37366	-47.48135	1356.06177	-1239.67651	-40.62101	1132.74805	-1255.24609	-58.00811	1021.58575	-1260.10254	-76.89776	886.15833	-1230.03247	-112.68236	791.40173	-1270.18640	-77.26284	786.22278	-1265.64954	-104.90503	717.40955	-889.31964	-135.30836	935.81458	-1129.32239	-124.52684	937.55896	-933.89258	28.23902	956.34821	-1082.65710	34.90350	959.43134	-860.86493	-65.00612	632.63824	-903.51453	-48.01257	456.42065	-901.47186	24.34961	272.94186	-943.05981	76.69102	69.58920	-975.90948	122.53874	37.53865	-969.21277	-70.71236	30.42586	-1182.45837	-135.02953	646.64050	-1149.16199	-211.17603	482.20740	-1154.94775	-197.95337	293.64459	-1114.48059	-211.12459	75.71188	-1058.57788	-175.10831	39.04270	-1105.92041	-352.41058	52.21564	-992.80121	-74.77162	1672.18713																		 
181	1.800	-950.03046	-165.35442	1608.72131	-1082.03076	-153.02136	1618.68335	-944.55908	-36.83485	1567.81702	-1075.01868	-29.39185	1576.93726	-1000.60767	2.39652	1411.45068	-997.65570	36.28431	1097.10315	-1014.74994	-116.25047	1332.52258	-1010.58063	-159.05040	1168.47168	-1087.72327	68.62659	1234.20898	-857.25964	-92.49368	1371.01233	-780.07806	-132.49266	1185.13403	-767.94537	-175.96971	1070.83411	-784.61224	-251.01439	966.81494	-829.99481	-310.81799	870.23505	-775.24091	-300.42484	864.46185	-795.42297	-351.29968	800.31311	-1168.85815	-53.46189	1355.24756	-1240.05310	-46.07793	1131.87329	-1255.60425	-63.13212	1020.67371	-1260.58044	-81.57745	885.17688	-1230.56079	-117.07789	790.26837	-1270.60950	-81.51495	785.16870	-1266.16541	-108.83143	716.26917	-889.46155	-141.00946	935.25275	-1129.53223	-130.44244	936.77856	-934.30359	22.61332	955.43408	-1083.12659	29.10439	958.62378	-860.97815	-69.14358	632.24731	-903.50696	-51.13610	456.01123	-901.53607	22.64982	273.05734	-943.05115	76.56706	70.10741	-976.07446	122.25588	37.97455	-969.21124	-70.68927	30.39336	-1182.48560	-140.20705	645.72681	-1148.74475	-216.72247	481.41718	-1154.57312	-207.74165	292.97647	-1114.31335	-227.36957	75.40788	-1057.95398	-192.74509	38.18132	-1106.46765	-369.58633	54.77367	-993.50806	-80.32574	1671.32117																		 
182	1.810	-951.01892	-171.19685	1608.30225	-1082.98352	-158.61528	1618.02344	-945.35370	-42.77068	1566.96985	-1075.75610	-35.14009	1575.92395	-1001.36847	-3.70241	1410.83508	-998.20313	30.57124	1096.50232	-1015.27045	-122.41214	1331.77087	-1010.98016	-164.89488	1167.57800	-1088.07312	62.61812	1233.58801	-857.78113	-98.79834	1370.17834	-780.53217	-138.81891	1184.29675	-768.46838	-182.54652	1070.14978	-785.63489	-258.06155	966.63959	-831.60974	-318.56714	870.83179	-776.94708	-308.07593	864.50354	-797.56018	-359.36353	800.79388	-1169.39856	-59.55334	1354.40210	-1240.42175	-51.62695	1131.06128	-1255.94678	-68.30625	1019.78607	-1260.93799	-86.33868	884.17615	-1231.03870	-121.63008	789.24622	-1270.96973	-85.87438	784.25330	-1266.53723	-112.95783	715.18127	-889.56866	-146.37764	934.47906	-1129.79089	-136.55890	936.00714	-934.87109	17.03679	954.72131	-1083.61096	23.22519	957.78235	-861.20178	-73.33419	631.95520	-903.52325	-54.23579	455.70129	-901.55426	20.85795	273.23462	-943.12201	76.27940	70.64974	-976.06696	122.29180	38.85222	-969.23004	-70.73643	30.33498	-1181.93518	-145.03633	644.67200	-1148.16309	-221.99373	480.51794	-1154.17688	-216.93553	292.32336	-1114.30530	-242.58820	75.21632	-1057.64905	-209.25691	37.52837	-1106.93372	-385.60284	57.04566	-994.72406	-85.75688	1670.60071																		 
